<svg xmlns="http://www.w3.org/2000/svg" viewBox="0 0 16 16"><title>Photoshop_idle</title><g id="Layer_2" data-name="Layer 2"><g id="New_Icons" data-name="New Icons"><g id="Photoshop_idle"><path d="M9,11.54a3,3,0,0,0,1.4.29c1.13,0,2-.59,2-1.68,0-.73-.33-1.23-1.4-1.75-.73-.38-.85-.55-.85-.8s.18-.5.72-.5A2.31,2.31,0,0,1,12,7.41c.07,0,.11,0,.11-.07V6.41A.16.16,0,0,0,12,6.27a3.25,3.25,0,0,0-1.23-.19A1.68,1.68,0,0,0,8.9,7.69c0,.79.4,1.26,1.37,1.73.69.35.85.57.85.82s-.23.53-.77.53A2.52,2.52,0,0,1,9,10.37c-.05,0-.08,0-.08.05v1C8.9,11.48,8.9,11.51,9,11.54Zm-5.18.17h1c.07,0,.09,0,.09-.08V9h.53C7,9,8.23,8.27,8.23,6.54c0-1.33-.74-2.37-2.63-2.37-.68,0-1.33,0-1.76,0-.06,0-.15,0-.15.08v7.34C3.69,11.69,3.71,11.71,3.77,11.71ZM4.9,5.28l.66,0C6.47,5.26,7,5.7,7,6.56c0,1.09-.75,1.37-1.55,1.37H4.9Z" style="fill:#ccc"/><path d="M16,16H0V0H16ZM.89,15.11H15.11V.89H.89Z" style="fill:#ccc"/></g></g></g></svg>